# xmcd CD database file
#
# Track frame offsets:
#	182
#	10732
#	22160
#	27340
#	38817
#	52647
#	63977
#	72632
#	83325
#	98617
#	113260
#	121917
#	145010
#	156897
#	171562
#	182507
#	198130
#	206735
#
# Disc length: 2897 seconds
#
# Revision: 3
# Processed by: cddbd v1.5.2PL0 Copyright (c) Steve Scherf et al.
# Submitted via: CDex 1.70beta2
#
DISCID=e10b4f12
DTITLE=Fats Domino - Jazz and Blues Collection
DYEAR=1973
DGENRE=Blues
TTITLE0=I'm Gonna Be A Wheel Someday
TTITLE1=I Want To Walk You Home
TTITLE2=Whole Lotta Lovin'
TTITLE3=The Fat Man
TTITLE4=Blueberry Hill
TTITLE5=Ain't That A Shame
TTITLE6=Be My Guest
TTITLE7=Blue Monday
TTITLE8=Jambalaya
TTITLE9=I'm In Love Again
TTITLE10=Red Sails In The Sunset
TTITLE11=Domino Twist
TTITLE12=Let The Four Winds Blow
TTITLE13=I'm In The Mood For Love
TTITLE14=What A Price
TTITLE15=I'm Walking
TTITLE16=I'm Ready
TTITLE17=My Girl Josephine
EXTD=CD de la collection Jazz and Blues No24\nEditions Atlas\nEnregistrement ADD YEAR: 1973
EXTT0=
EXTT1=
EXTT2=
EXTT3=
EXTT4=
EXTT5=
EXTT6=
EXTT7=
EXTT8=
EXTT9=
EXTT10=
EXTT11=
EXTT12=
EXTT13=
EXTT14=
EXTT15=
EXTT16=
EXTT17=
PLAYORDER=
